%TF.GenerationSoftware,KiCad,Pcbnew,8.0.2*%
%TF.CreationDate,2024-06-01T14:05:18+02:00*%
%TF.ProjectId,dht,6468742e-6b69-4636-9164-5f7063625858,rev?*%
%TF.SameCoordinates,Original*%
%TF.FileFunction,Copper,L1,Top*%
%TF.FilePolarity,Positive*%
%FSLAX46Y46*%
G04 Gerber Fmt 4.6, Leading zero omitted, Abs format (unit mm)*
G04 Created by KiCad (PCBNEW 8.0.2) date 2024-06-01 14:05:18*
%MOMM*%
%LPD*%
G01*
G04 APERTURE LIST*
G04 Aperture macros list*
%AMRoundRect*
0 Rectangle with rounded corners*
0 $1 Rounding radius*
0 $2 $3 $4 $5 $6 $7 $8 $9 X,Y pos of 4 corners*
0 Add a 4 corners polygon primitive as box body*
4,1,4,$2,$3,$4,$5,$6,$7,$8,$9,$2,$3,0*
0 Add four circle primitives for the rounded corners*
1,1,$1+$1,$2,$3*
1,1,$1+$1,$4,$5*
1,1,$1+$1,$6,$7*
1,1,$1+$1,$8,$9*
0 Add four rect primitives between the rounded corners*
20,1,$1+$1,$2,$3,$4,$5,0*
20,1,$1+$1,$4,$5,$6,$7,0*
20,1,$1+$1,$6,$7,$8,$9,0*
20,1,$1+$1,$8,$9,$2,$3,0*%
G04 Aperture macros list end*
%TA.AperFunction,ComponentPad*%
%ADD10RoundRect,0.225000X-0.475000X0.225000X-0.475000X-0.225000X0.475000X-0.225000X0.475000X0.225000X0*%
%TD*%
%TA.AperFunction,ComponentPad*%
%ADD11O,1.400000X0.900000*%
%TD*%
%TA.AperFunction,ComponentPad*%
%ADD12C,0.800000*%
%TD*%
%TA.AperFunction,ComponentPad*%
%ADD13C,6.400000*%
%TD*%
%TA.AperFunction,ComponentPad*%
%ADD14R,1.700000X1.700000*%
%TD*%
%TA.AperFunction,ComponentPad*%
%ADD15O,1.700000X1.700000*%
%TD*%
%TA.AperFunction,ViaPad*%
%ADD16C,0.700000*%
%TD*%
%TA.AperFunction,Conductor*%
%ADD17C,0.300000*%
%TD*%
G04 APERTURE END LIST*
D10*
%TO.P,J2,1,Pin_1*%
%TO.N,GND*%
X166000000Y-83000000D03*
D11*
%TO.P,J2,2,Pin_2*%
%TO.N,VCC*%
X166000000Y-84250000D03*
%TD*%
D12*
%TO.P,H3,1,1*%
%TO.N,GND*%
X162402944Y-103100000D03*
X163105888Y-101402944D03*
X163105888Y-104797056D03*
X164802944Y-100700000D03*
D13*
X164802944Y-103100000D03*
D12*
X164802944Y-105500000D03*
X166500000Y-101402944D03*
X166500000Y-104797056D03*
X167202944Y-103100000D03*
%TD*%
%TO.P,H2,1,1*%
%TO.N,GND*%
X162402944Y-75000000D03*
X163105888Y-73302944D03*
X163105888Y-76697056D03*
X164802944Y-72600000D03*
D13*
X164802944Y-75000000D03*
D12*
X164802944Y-77400000D03*
X166500000Y-73302944D03*
X166500000Y-76697056D03*
X167202944Y-75000000D03*
%TD*%
%TO.P,H1,1,1*%
%TO.N,GND*%
X99297056Y-103100000D03*
X100000000Y-101402944D03*
X100000000Y-104797056D03*
X101697056Y-100700000D03*
D13*
X101697056Y-103100000D03*
D12*
X101697056Y-105500000D03*
X103394112Y-101402944D03*
X103394112Y-104797056D03*
X104097056Y-103100000D03*
%TD*%
D14*
%TO.P,J1,1,Pin_1*%
%TO.N,VCC*%
X166790000Y-89700000D03*
D15*
%TO.P,J1,2,Pin_2*%
%TO.N,unconnected-(J1-Pin_2-Pad2)*%
X164250000Y-89700000D03*
%TO.P,J1,3,Pin_3*%
%TO.N,unconnected-(J1-Pin_3-Pad3)*%
X166790000Y-92240000D03*
%TO.P,J1,4,Pin_4*%
%TO.N,unconnected-(J1-Pin_4-Pad4)*%
X164250000Y-92240000D03*
%TO.P,J1,5,Pin_5*%
%TO.N,unconnected-(J1-Pin_5-Pad5)*%
X166790000Y-94780000D03*
%TO.P,J1,6,Pin_6*%
%TO.N,IO2*%
X164250000Y-94780000D03*
%TO.P,J1,7,Pin_7*%
%TO.N,unconnected-(J1-Pin_7-Pad7)*%
X166790000Y-97320000D03*
%TO.P,J1,8,Pin_8*%
%TO.N,GND*%
X164250000Y-97320000D03*
%TD*%
D12*
%TO.P,H5,1,1*%
%TO.N,GND*%
X99297056Y-75000000D03*
X100000000Y-73302944D03*
X100000000Y-76697056D03*
X101697056Y-72600000D03*
D13*
X101697056Y-75000000D03*
D12*
X101697056Y-77400000D03*
X103394112Y-73302944D03*
X103394112Y-76697056D03*
X104097056Y-75000000D03*
%TD*%
D15*
%TO.P,J3,3,Pin_3*%
%TO.N,GND*%
X162000000Y-85580000D03*
%TO.P,J3,2,Pin_2*%
%TO.N,IO2*%
X162000000Y-83040000D03*
D14*
%TO.P,J3,1,Pin_1*%
%TO.N,VCC*%
X162000000Y-80500000D03*
%TD*%
D16*
%TO.N,GND*%
X164500000Y-87000000D03*
X161000000Y-91000000D03*
X161000000Y-87750000D03*
%TD*%
D17*
%TO.N,VCC*%
X162750000Y-80500000D02*
X162000000Y-80500000D01*
X164000000Y-81750000D02*
X162750000Y-80500000D01*
X164500000Y-84250000D02*
X164000000Y-83750000D01*
X166000000Y-84250000D02*
X164500000Y-84250000D01*
X164000000Y-83750000D02*
X164000000Y-81750000D01*
%TO.N,IO2*%
X162530000Y-94780000D02*
X164250000Y-94780000D01*
X159500000Y-91750000D02*
X162530000Y-94780000D01*
X160265000Y-82985000D02*
X159500000Y-83750000D01*
X159500000Y-83750000D02*
X159500000Y-91750000D01*
X162000000Y-82985000D02*
X160265000Y-82985000D01*
%TO.N,VCC*%
X166000000Y-88910000D02*
X166790000Y-89700000D01*
X166000000Y-84250000D02*
X166000000Y-88910000D01*
%TD*%
%TA.AperFunction,Conductor*%
%TO.N,GND*%
G36*
X160775616Y-83655185D02*
G01*
X160820958Y-83707092D01*
X160825966Y-83717832D01*
X160825967Y-83717834D01*
X160870771Y-83781820D01*
X160961505Y-83911401D01*
X161128599Y-84078495D01*
X161239834Y-84156383D01*
X161314594Y-84208730D01*
X161358219Y-84263307D01*
X161365413Y-84332805D01*
X161333890Y-84395160D01*
X161314595Y-84411880D01*
X161128922Y-84541890D01*
X161128920Y-84541891D01*
X160961891Y-84708920D01*
X160961886Y-84708926D01*
X160826400Y-84902420D01*
X160826399Y-84902422D01*
X160726570Y-85116507D01*
X160726567Y-85116513D01*
X160669364Y-85329999D01*
X160669364Y-85330000D01*
X161566988Y-85330000D01*
X161534075Y-85387007D01*
X161500000Y-85514174D01*
X161500000Y-85645826D01*
X161534075Y-85772993D01*
X161566988Y-85830000D01*
X160669364Y-85830000D01*
X160726567Y-86043486D01*
X160726570Y-86043492D01*
X160826399Y-86257578D01*
X160961894Y-86451082D01*
X161128917Y-86618105D01*
X161322421Y-86753600D01*
X161536507Y-86853429D01*
X161536516Y-86853433D01*
X161750000Y-86910634D01*
X161750000Y-86013012D01*
X161807007Y-86045925D01*
X161934174Y-86080000D01*
X162065826Y-86080000D01*
X162192993Y-86045925D01*
X162250000Y-86013012D01*
X162250000Y-86910633D01*
X162463483Y-86853433D01*
X162463492Y-86853429D01*
X162677578Y-86753600D01*
X162871082Y-86618105D01*
X163038105Y-86451082D01*
X163173600Y-86257578D01*
X163273429Y-86043492D01*
X163273432Y-86043486D01*
X163330636Y-85830000D01*
X162433012Y-85830000D01*
X162465925Y-85772993D01*
X162500000Y-85645826D01*
X162500000Y-85514174D01*
X162465925Y-85387007D01*
X162433012Y-85330000D01*
X163330636Y-85330000D01*
X163330635Y-85329999D01*
X163273432Y-85116513D01*
X163273429Y-85116507D01*
X163173600Y-84902422D01*
X163173599Y-84902420D01*
X163038113Y-84708926D01*
X163038108Y-84708920D01*
X162871078Y-84541890D01*
X162685405Y-84411879D01*
X162641780Y-84357302D01*
X162634588Y-84287804D01*
X162666110Y-84225449D01*
X162685406Y-84208730D01*
X162748326Y-84164673D01*
X162871401Y-84078495D01*
X163038495Y-83911401D01*
X163129229Y-83781818D01*
X163183804Y-83738195D01*
X163253303Y-83731001D01*
X163315658Y-83762524D01*
X163351072Y-83822753D01*
X163352420Y-83828751D01*
X163368860Y-83911395D01*
X163368861Y-83911401D01*
X163374499Y-83939744D01*
X163423535Y-84058127D01*
X163494723Y-84164669D01*
X163494726Y-84164673D01*
X164085326Y-84755273D01*
X164085329Y-84755275D01*
X164085331Y-84755277D01*
X164191873Y-84826465D01*
X164310256Y-84875501D01*
X164310260Y-84875501D01*
X164310261Y-84875502D01*
X164435928Y-84900500D01*
X164435931Y-84900500D01*
X165004928Y-84900500D01*
X165071967Y-84920185D01*
X165092610Y-84936820D01*
X165144088Y-84988299D01*
X165144089Y-84988300D01*
X165144092Y-84988302D01*
X165294391Y-85088728D01*
X165339196Y-85142340D01*
X165349500Y-85191830D01*
X165349500Y-88590242D01*
X165329815Y-88657281D01*
X165277011Y-88703036D01*
X165207853Y-88712980D01*
X165144297Y-88683955D01*
X165137819Y-88677923D01*
X165121402Y-88661506D01*
X165121395Y-88661501D01*
X165115368Y-88657281D01*
X165044518Y-88607671D01*
X164927834Y-88525967D01*
X164927830Y-88525965D01*
X164927828Y-88525964D01*
X164713663Y-88426097D01*
X164713659Y-88426096D01*
X164713655Y-88426094D01*
X164485413Y-88364938D01*
X164485403Y-88364936D01*
X164250001Y-88344341D01*
X164249999Y-88344341D01*
X164014596Y-88364936D01*
X164014586Y-88364938D01*
X163786344Y-88426094D01*
X163786335Y-88426098D01*
X163572171Y-88525964D01*
X163572169Y-88525965D01*
X163378597Y-88661505D01*
X163211505Y-88828597D01*
X163075965Y-89022169D01*
X163075964Y-89022171D01*
X162976098Y-89236335D01*
X162976094Y-89236344D01*
X162914938Y-89464586D01*
X162914936Y-89464596D01*
X162894341Y-89699999D01*
X162894341Y-89700000D01*
X162914936Y-89935403D01*
X162914938Y-89935413D01*
X162976094Y-90163655D01*
X162976096Y-90163659D01*
X162976097Y-90163663D01*
X163060499Y-90344663D01*
X163075965Y-90377830D01*
X163075967Y-90377834D01*
X163211501Y-90571395D01*
X163211506Y-90571402D01*
X163378597Y-90738493D01*
X163378603Y-90738498D01*
X163564158Y-90868425D01*
X163607783Y-90923002D01*
X163614977Y-90992500D01*
X163583454Y-91054855D01*
X163564158Y-91071575D01*
X163378597Y-91201505D01*
X163211505Y-91368597D01*
X163075965Y-91562169D01*
X163075964Y-91562171D01*
X162976098Y-91776335D01*
X162976094Y-91776344D01*
X162914938Y-92004586D01*
X162914936Y-92004596D01*
X162894341Y-92239999D01*
X162894341Y-92240000D01*
X162914936Y-92475403D01*
X162914938Y-92475413D01*
X162976094Y-92703655D01*
X162976096Y-92703659D01*
X162976097Y-92703663D01*
X162980000Y-92712032D01*
X163075965Y-92917830D01*
X163075967Y-92917834D01*
X163184281Y-93072521D01*
X163211501Y-93111396D01*
X163211506Y-93111402D01*
X163378597Y-93278493D01*
X163378603Y-93278498D01*
X163564158Y-93408425D01*
X163607783Y-93463002D01*
X163614977Y-93532500D01*
X163583454Y-93594855D01*
X163564158Y-93611575D01*
X163378597Y-93741505D01*
X163211506Y-93908596D01*
X163093854Y-94076623D01*
X163039277Y-94120248D01*
X162992279Y-94129500D01*
X162850808Y-94129500D01*
X162783769Y-94109815D01*
X162763127Y-94093181D01*
X160186819Y-91516873D01*
X160153334Y-91455550D01*
X160150500Y-91429192D01*
X160150500Y-84070808D01*
X160170185Y-84003769D01*
X160186819Y-83983127D01*
X160498127Y-83671819D01*
X160559450Y-83638334D01*
X160585808Y-83635500D01*
X160708577Y-83635500D01*
X160775616Y-83655185D01*
G37*
%TD.AperFunction*%
%TA.AperFunction,Conductor*%
G36*
X165000641Y-70000006D02*
G01*
X165213481Y-70002328D01*
X165222915Y-70002792D01*
X165647552Y-70039943D01*
X165658270Y-70041354D01*
X166077393Y-70115256D01*
X166087921Y-70117590D01*
X166499033Y-70227747D01*
X166509322Y-70230992D01*
X166909255Y-70376555D01*
X166919221Y-70380683D01*
X167304942Y-70560547D01*
X167314528Y-70565538D01*
X167683088Y-70778326D01*
X167692207Y-70784135D01*
X168040820Y-71028237D01*
X168049402Y-71034822D01*
X168375420Y-71308383D01*
X168383395Y-71315692D01*
X168684307Y-71616604D01*
X168691616Y-71624579D01*
X168965177Y-71950597D01*
X168971762Y-71959179D01*
X169215864Y-72307792D01*
X169221676Y-72316916D01*
X169434459Y-72685467D01*
X169439454Y-72695062D01*
X169619310Y-73080764D01*
X169623450Y-73090759D01*
X169769003Y-73490664D01*
X169772256Y-73500980D01*
X169882405Y-73912061D01*
X169884746Y-73922623D01*
X169958644Y-74341725D01*
X169960056Y-74352450D01*
X169997206Y-74777073D01*
X169997671Y-74786527D01*
X169999993Y-74999357D01*
X170000000Y-75000710D01*
X170000000Y-102999289D01*
X169999993Y-103000642D01*
X169997671Y-103213472D01*
X169997206Y-103222926D01*
X169960056Y-103647549D01*
X169958644Y-103658274D01*
X169884746Y-104077376D01*
X169882405Y-104087938D01*
X169772256Y-104499019D01*
X169769003Y-104509335D01*
X169623450Y-104909240D01*
X169619310Y-104919235D01*
X169439454Y-105304937D01*
X169434459Y-105314532D01*
X169221676Y-105683083D01*
X169215864Y-105692207D01*
X168971762Y-106040820D01*
X168965177Y-106049402D01*
X168691616Y-106375420D01*
X168684307Y-106383395D01*
X168383395Y-106684307D01*
X168375420Y-106691616D01*
X168049402Y-106965177D01*
X168040820Y-106971762D01*
X167692207Y-107215864D01*
X167683083Y-107221676D01*
X167314532Y-107434459D01*
X167304937Y-107439454D01*
X166919235Y-107619310D01*
X166909240Y-107623450D01*
X166509335Y-107769003D01*
X166499019Y-107772256D01*
X166087938Y-107882405D01*
X166077376Y-107884746D01*
X165658274Y-107958644D01*
X165647549Y-107960056D01*
X165222926Y-107997206D01*
X165213472Y-107997671D01*
X165005455Y-107999940D01*
X165000640Y-107999993D01*
X164999290Y-108000000D01*
X156697056Y-108000000D01*
X101697769Y-108000000D01*
X101696415Y-107999993D01*
X101483585Y-107997669D01*
X101474131Y-107997204D01*
X101049511Y-107960051D01*
X101038786Y-107958639D01*
X100619687Y-107884738D01*
X100609125Y-107882397D01*
X100198046Y-107772245D01*
X100187730Y-107768992D01*
X99787825Y-107623435D01*
X99777831Y-107619295D01*
X99584985Y-107529368D01*
X99392132Y-107439438D01*
X99382552Y-107434451D01*
X99013979Y-107221653D01*
X99004856Y-107215840D01*
X98656259Y-106971746D01*
X98647677Y-106965161D01*
X98321674Y-106691610D01*
X98313698Y-106684302D01*
X98012767Y-106383369D01*
X98005459Y-106375393D01*
X97949488Y-106308689D01*
X97731912Y-106049388D01*
X97725327Y-106040806D01*
X97481231Y-105692198D01*
X97475419Y-105683075D01*
X97262632Y-105314516D01*
X97257637Y-105304920D01*
X97093322Y-104952543D01*
X97077782Y-104919217D01*
X97073651Y-104909245D01*
X96928093Y-104509325D01*
X96924840Y-104499008D01*
X96814694Y-104087934D01*
X96812353Y-104077373D01*
X96738454Y-103658270D01*
X96737042Y-103647545D01*
X96699890Y-103222891D01*
X96699427Y-103213473D01*
X96698167Y-103099999D01*
X97991978Y-103099999D01*
X97991978Y-103100000D01*
X98012275Y-103487287D01*
X98072942Y-103870323D01*
X98072943Y-103870330D01*
X98173318Y-104244936D01*
X98312300Y-104606994D01*
X98488366Y-104952543D01*
X98699587Y-105277793D01*
X98908151Y-105535350D01*
X98908152Y-105535350D01*
X100402804Y-104040698D01*
X100476644Y-104142330D01*
X100654726Y-104320412D01*
X100756356Y-104394251D01*
X99261704Y-105888903D01*
X99261705Y-105888904D01*
X99519262Y-106097468D01*
X99844512Y-106308689D01*
X100190061Y-106484755D01*
X100552119Y-106623737D01*
X100926725Y-106724112D01*
X100926732Y-106724113D01*
X101309768Y-106784780D01*
X101697055Y-106805078D01*
X101697057Y-106805078D01*
X102084343Y-106784780D01*
X102467379Y-106724113D01*
X102467386Y-106724112D01*
X102841992Y-106623737D01*
X103204050Y-106484755D01*
X103549599Y-106308689D01*
X103874839Y-106097476D01*
X103874841Y-106097475D01*
X104132405Y-105888902D01*
X102637754Y-104394251D01*
X102739386Y-104320412D01*
X102917468Y-104142330D01*
X102991307Y-104040698D01*
X104485958Y-105535349D01*
X104694531Y-105277785D01*
X104694532Y-105277783D01*
X104905745Y-104952543D01*
X105081811Y-104606994D01*
X105220793Y-104244936D01*
X105321168Y-103870330D01*
X105321169Y-103870323D01*
X105381836Y-103487287D01*
X105402134Y-103100000D01*
X105402134Y-103099999D01*
X161097866Y-103099999D01*
X161097866Y-103100000D01*
X161118163Y-103487287D01*
X161178830Y-103870323D01*
X161178831Y-103870330D01*
X161279206Y-104244936D01*
X161418188Y-104606994D01*
X161594254Y-104952543D01*
X161805475Y-105277793D01*
X162014039Y-105535350D01*
X162014040Y-105535350D01*
X163508692Y-104040698D01*
X163582532Y-104142330D01*
X163760614Y-104320412D01*
X163862244Y-104394251D01*
X162367592Y-105888903D01*
X162367593Y-105888904D01*
X162625150Y-106097468D01*
X162950400Y-106308689D01*
X163295949Y-106484755D01*
X163658007Y-106623737D01*
X164032613Y-106724112D01*
X164032620Y-106724113D01*
X164415656Y-106784780D01*
X164802943Y-106805078D01*
X164802945Y-106805078D01*
X165190231Y-106784780D01*
X165573267Y-106724113D01*
X165573274Y-106724112D01*
X165947880Y-106623737D01*
X166309938Y-106484755D01*
X166655487Y-106308689D01*
X166980727Y-106097476D01*
X166980729Y-106097475D01*
X167238293Y-105888902D01*
X165743642Y-104394251D01*
X165845274Y-104320412D01*
X166023356Y-104142330D01*
X166097195Y-104040698D01*
X167591846Y-105535349D01*
X167800419Y-105277785D01*
X167800420Y-105277783D01*
X168011633Y-104952543D01*
X168187699Y-104606994D01*
X168326681Y-104244936D01*
X168427056Y-103870330D01*
X168427057Y-103870323D01*
X168487724Y-103487287D01*
X168508022Y-103100000D01*
X168508022Y-103099999D01*
X168487724Y-102712712D01*
X168427057Y-102329676D01*
X168427056Y-102329669D01*
X168326681Y-101955063D01*
X168187699Y-101593005D01*
X168011633Y-101247456D01*
X167800412Y-100922206D01*
X167591848Y-100664649D01*
X167591847Y-100664648D01*
X166097195Y-102159300D01*
X166023356Y-102057670D01*
X165845274Y-101879588D01*
X165743642Y-101805748D01*
X167238294Y-100311096D01*
X167238294Y-100311095D01*
X166980737Y-100102531D01*
X166655487Y-99891310D01*
X166309938Y-99715244D01*
X165947880Y-99576262D01*
X165573274Y-99475887D01*
X165573267Y-99475886D01*
X165190231Y-99415219D01*
X164802945Y-99394922D01*
X164802943Y-99394922D01*
X164415656Y-99415219D01*
X164032620Y-99475886D01*
X164032613Y-99475887D01*
X163658007Y-99576262D01*
X163295949Y-99715244D01*
X162950400Y-99891310D01*
X162625150Y-100102531D01*
X162367592Y-100311095D01*
X162367592Y-100311096D01*
X163862245Y-101805748D01*
X163760614Y-101879588D01*
X163582532Y-102057670D01*
X163508692Y-102159300D01*
X162014040Y-100664648D01*
X162014039Y-100664648D01*
X161805475Y-100922206D01*
X161594254Y-101247456D01*
X161418188Y-101593005D01*
X161279206Y-101955063D01*
X161178831Y-102329669D01*
X161178830Y-102329676D01*
X161118163Y-102712712D01*
X161097866Y-103099999D01*
X105402134Y-103099999D01*
X105381836Y-102712712D01*
X105321169Y-102329676D01*
X105321168Y-102329669D01*
X105220793Y-101955063D01*
X105081811Y-101593005D01*
X104905745Y-101247456D01*
X104694524Y-100922206D01*
X104485960Y-100664649D01*
X104485959Y-100664648D01*
X102991307Y-102159300D01*
X102917468Y-102057670D01*
X102739386Y-101879588D01*
X102637754Y-101805748D01*
X104132406Y-100311096D01*
X104132406Y-100311095D01*
X103874849Y-100102531D01*
X103549599Y-99891310D01*
X103204050Y-99715244D01*
X102841992Y-99576262D01*
X102467386Y-99475887D01*
X102467379Y-99475886D01*
X102084343Y-99415219D01*
X101697057Y-99394922D01*
X101697055Y-99394922D01*
X101309768Y-99415219D01*
X100926732Y-99475886D01*
X100926725Y-99475887D01*
X100552119Y-99576262D01*
X100190061Y-99715244D01*
X99844512Y-99891310D01*
X99519262Y-100102531D01*
X99261704Y-100311095D01*
X99261704Y-100311096D01*
X100756357Y-101805748D01*
X100654726Y-101879588D01*
X100476644Y-102057670D01*
X100402804Y-102159300D01*
X98908152Y-100664648D01*
X98908151Y-100664648D01*
X98699587Y-100922206D01*
X98488366Y-101247456D01*
X98312300Y-101593005D01*
X98173318Y-101955063D01*
X98072943Y-102329669D01*
X98072942Y-102329676D01*
X98012275Y-102712712D01*
X97991978Y-103099999D01*
X96698167Y-103099999D01*
X96697064Y-103000720D01*
X96697056Y-102999343D01*
X96697056Y-91814071D01*
X158849499Y-91814071D01*
X158874497Y-91939738D01*
X158874499Y-91939744D01*
X158923534Y-92058125D01*
X158994726Y-92164673D01*
X162115326Y-95285273D01*
X162115329Y-95285275D01*
X162115331Y-95285277D01*
X162221873Y-95356465D01*
X162340256Y-95405501D01*
X162340260Y-95405501D01*
X162340261Y-95405502D01*
X162465928Y-95430500D01*
X162465931Y-95430500D01*
X162992278Y-95430500D01*
X163059317Y-95450185D01*
X163093853Y-95483377D01*
X163211501Y-95651396D01*
X163211506Y-95651402D01*
X163378597Y-95818493D01*
X163378603Y-95818498D01*
X163564594Y-95948730D01*
X163608219Y-96003307D01*
X163615413Y-96072805D01*
X163583890Y-96135160D01*
X163564595Y-96151880D01*
X163378922Y-96281890D01*
X163378920Y-96281891D01*
X163211891Y-96448920D01*
X163211886Y-96448926D01*
X163076400Y-96642420D01*
X163076399Y-96642422D01*
X162976570Y-96856507D01*
X162976567Y-96856513D01*
X162919364Y-97069999D01*
X162919364Y-97070000D01*
X163816988Y-97070000D01*
X163784075Y-97127007D01*
X163750000Y-97254174D01*
X163750000Y-97385826D01*
X163784075Y-97512993D01*
X163816988Y-97570000D01*
X162919364Y-97570000D01*
X162976567Y-97783486D01*
X162976570Y-97783492D01*
X163076399Y-97997578D01*
X163211894Y-98191082D01*
X163378917Y-98358105D01*
X163572421Y-98493600D01*
X163786507Y-98593429D01*
X163786516Y-98593433D01*
X164000000Y-98650634D01*
X164000000Y-97753012D01*
X164057007Y-97785925D01*
X164184174Y-97820000D01*
X164315826Y-97820000D01*
X164442993Y-97785925D01*
X164500000Y-97753012D01*
X164500000Y-98650633D01*
X164713483Y-98593433D01*
X164713492Y-98593429D01*
X164927578Y-98493600D01*
X165121082Y-98358105D01*
X165288105Y-98191082D01*
X165418119Y-98005405D01*
X165472696Y-97961781D01*
X165542195Y-97954588D01*
X165604549Y-97986110D01*
X165621269Y-98005405D01*
X165751505Y-98191401D01*
X165918599Y-98358495D01*
X166015384Y-98426265D01*
X166112165Y-98494032D01*
X166112167Y-98494033D01*
X166112170Y-98494035D01*
X166326337Y-98593903D01*
X166554592Y-98655063D01*
X166742918Y-98671539D01*
X166789999Y-98675659D01*
X166790000Y-98675659D01*
X166790001Y-98675659D01*
X166829234Y-98672226D01*
X167025408Y-98655063D01*
X167253663Y-98593903D01*
X167467830Y-98494035D01*
X167661401Y-98358495D01*
X167828495Y-98191401D01*
X167964035Y-97997830D01*
X168063903Y-97783663D01*
X168125063Y-97555408D01*
X168145659Y-97320000D01*
X168125063Y-97084592D01*
X168063903Y-96856337D01*
X167964035Y-96642171D01*
X167958731Y-96634595D01*
X167828494Y-96448597D01*
X167661402Y-96281506D01*
X167661396Y-96281501D01*
X167475842Y-96151575D01*
X167432217Y-96096998D01*
X167425023Y-96027500D01*
X167456546Y-95965145D01*
X167475842Y-95948425D01*
X167498026Y-95932891D01*
X167661401Y-95818495D01*
X167828495Y-95651401D01*
X167964035Y-95457830D01*
X168063903Y-95243663D01*
X168125063Y-95015408D01*
X168145659Y-94780000D01*
X168125063Y-94544592D01*
X168063903Y-94316337D01*
X167964035Y-94102171D01*
X167958425Y-94094158D01*
X167828494Y-93908597D01*
X167661402Y-93741506D01*
X167661396Y-93741501D01*
X167475842Y-93611575D01*
X167432217Y-93556998D01*
X167425023Y-93487500D01*
X167456546Y-93425145D01*
X167475842Y-93408425D01*
X167498026Y-93392891D01*
X167661401Y-93278495D01*
X167828495Y-93111401D01*
X167964035Y-92917830D01*
X168063903Y-92703663D01*
X168125063Y-92475408D01*
X168145659Y-92240000D01*
X168125063Y-92004592D01*
X168063903Y-91776337D01*
X167964035Y-91562171D01*
X167958424Y-91554158D01*
X167828496Y-91368600D01*
X167828493Y-91368597D01*
X167706567Y-91246671D01*
X167673084Y-91185351D01*
X167678068Y-91115659D01*
X167719939Y-91059725D01*
X167750915Y-91042810D01*
X167882331Y-90993796D01*
X167997546Y-90907546D01*
X168083796Y-90792331D01*
X168134091Y-90657483D01*
X168140500Y-90597873D01*
X168140499Y-88802128D01*
X168134091Y-88742517D01*
X168123074Y-88712980D01*
X168083797Y-88607671D01*
X168083793Y-88607664D01*
X167997547Y-88492455D01*
X167997544Y-88492452D01*
X167882335Y-88406206D01*
X167882328Y-88406202D01*
X167747482Y-88355908D01*
X167747483Y-88355908D01*
X167687883Y-88349501D01*
X167687881Y-88349500D01*
X167687873Y-88349500D01*
X167687865Y-88349500D01*
X166774500Y-88349500D01*
X166707461Y-88329815D01*
X166661706Y-88277011D01*
X166650500Y-88225500D01*
X166650500Y-85191830D01*
X166670185Y-85124791D01*
X166705607Y-85088729D01*
X166855908Y-84988302D01*
X166988302Y-84855908D01*
X167092322Y-84700231D01*
X167163973Y-84527251D01*
X167200500Y-84343616D01*
X167200500Y-84156384D01*
X167163973Y-83972749D01*
X167092322Y-83799769D01*
X167074152Y-83772576D01*
X167053274Y-83705901D01*
X167071716Y-83638588D01*
X167136544Y-83533487D01*
X167136547Y-83533481D01*
X167189855Y-83372606D01*
X167199999Y-83273322D01*
X167200000Y-83273309D01*
X167200000Y-83250000D01*
X166166988Y-83250000D01*
X166184205Y-83240060D01*
X166240060Y-83184205D01*
X166279556Y-83115796D01*
X166300000Y-83039496D01*
X166300000Y-82960504D01*
X166279556Y-82884204D01*
X166240060Y-82815795D01*
X166184205Y-82759940D01*
X166166988Y-82750000D01*
X166250000Y-82750000D01*
X167199999Y-82750000D01*
X167199999Y-82726692D01*
X167199998Y-82726677D01*
X167189855Y-82627392D01*
X167136547Y-82466518D01*
X167136542Y-82466507D01*
X167047575Y-82322271D01*
X167047572Y-82322267D01*
X166927732Y-82202427D01*
X166927728Y-82202424D01*
X166783492Y-82113457D01*
X166783481Y-82113452D01*
X166622606Y-82060144D01*
X166523322Y-82050000D01*
X166250000Y-82050000D01*
X166250000Y-82750000D01*
X166166988Y-82750000D01*
X166115796Y-82720444D01*
X166039496Y-82700000D01*
X165960504Y-82700000D01*
X165884204Y-82720444D01*
X165815795Y-82759940D01*
X165759940Y-82815795D01*
X165750000Y-82833011D01*
X165750000Y-82050000D01*
X165476693Y-82050000D01*
X165476676Y-82050001D01*
X165377392Y-82060144D01*
X165216518Y-82113452D01*
X165216507Y-82113457D01*
X165072271Y-82202424D01*
X165072267Y-82202427D01*
X164952427Y-82322267D01*
X164952424Y-82322271D01*
X164880038Y-82439627D01*
X164828090Y-82486352D01*
X164759128Y-82497573D01*
X164695046Y-82469730D01*
X164656190Y-82411661D01*
X164650500Y-82374530D01*
X164650500Y-81685928D01*
X164625502Y-81560261D01*
X164625501Y-81560260D01*
X164625501Y-81560256D01*
X164576465Y-81441873D01*
X164505277Y-81335331D01*
X164505275Y-81335329D01*
X164505273Y-81335326D01*
X163386818Y-80216871D01*
X163353333Y-80155548D01*
X163350499Y-80129190D01*
X163350499Y-79602129D01*
X163350498Y-79602123D01*
X163350497Y-79602116D01*
X163344091Y-79542517D01*
X163293796Y-79407669D01*
X163293795Y-79407668D01*
X163293793Y-79407664D01*
X163207547Y-79292455D01*
X163207544Y-79292452D01*
X163092335Y-79206206D01*
X163092328Y-79206202D01*
X162957482Y-79155908D01*
X162957483Y-79155908D01*
X162897883Y-79149501D01*
X162897881Y-79149500D01*
X162897873Y-79149500D01*
X162897864Y-79149500D01*
X161102129Y-79149500D01*
X161102123Y-79149501D01*
X161042516Y-79155908D01*
X160907671Y-79206202D01*
X160907664Y-79206206D01*
X160792455Y-79292452D01*
X160792452Y-79292455D01*
X160706206Y-79407664D01*
X160706202Y-79407671D01*
X160655908Y-79542517D01*
X160649501Y-79602116D01*
X160649501Y-79602123D01*
X160649500Y-79602135D01*
X160649500Y-81397870D01*
X160649501Y-81397876D01*
X160655908Y-81457483D01*
X160706202Y-81592328D01*
X160706206Y-81592335D01*
X160792452Y-81707544D01*
X160792455Y-81707547D01*
X160907664Y-81793793D01*
X160907671Y-81793797D01*
X161039082Y-81842810D01*
X161095016Y-81884681D01*
X161119433Y-81950145D01*
X161104582Y-82018418D01*
X161083431Y-82046673D01*
X160961501Y-82168603D01*
X160882365Y-82281623D01*
X160827788Y-82325248D01*
X160780790Y-82334500D01*
X160200929Y-82334500D01*
X160075261Y-82359497D01*
X160075255Y-82359499D01*
X159956870Y-82408535D01*
X159850331Y-82479722D01*
X159850324Y-82479728D01*
X158994727Y-83335325D01*
X158994721Y-83335332D01*
X158951733Y-83399669D01*
X158951734Y-83399670D01*
X158923534Y-83441874D01*
X158874499Y-83560255D01*
X158874497Y-83560261D01*
X158849500Y-83685928D01*
X158849500Y-83685931D01*
X158849500Y-91814069D01*
X158849500Y-91814071D01*
X158849499Y-91814071D01*
X96697056Y-91814071D01*
X96697056Y-75000710D01*
X96697060Y-74999999D01*
X97991978Y-74999999D01*
X97991978Y-75000000D01*
X98012275Y-75387287D01*
X98072942Y-75770323D01*
X98072943Y-75770330D01*
X98173318Y-76144936D01*
X98312300Y-76506994D01*
X98488366Y-76852543D01*
X98699587Y-77177793D01*
X98908151Y-77435350D01*
X98908152Y-77435350D01*
X100402804Y-75940698D01*
X100476644Y-76042330D01*
X100654726Y-76220412D01*
X100756356Y-76294251D01*
X99261704Y-77788903D01*
X99261705Y-77788904D01*
X99519262Y-77997468D01*
X99844512Y-78208689D01*
X100190061Y-78384755D01*
X100552119Y-78523737D01*
X100926725Y-78624112D01*
X100926732Y-78624113D01*
X101309768Y-78684780D01*
X101697055Y-78705078D01*
X101697057Y-78705078D01*
X102084343Y-78684780D01*
X102467379Y-78624113D01*
X102467386Y-78624112D01*
X102841992Y-78523737D01*
X103204050Y-78384755D01*
X103549599Y-78208689D01*
X103874839Y-77997476D01*
X103874841Y-77997475D01*
X104132405Y-77788902D01*
X102637754Y-76294251D01*
X102739386Y-76220412D01*
X102917468Y-76042330D01*
X102991307Y-75940698D01*
X104485958Y-77435349D01*
X104694531Y-77177785D01*
X104694532Y-77177783D01*
X104905745Y-76852543D01*
X105081811Y-76506994D01*
X105220793Y-76144936D01*
X105321168Y-75770330D01*
X105321169Y-75770323D01*
X105381836Y-75387287D01*
X105402134Y-75000000D01*
X105402134Y-74999999D01*
X161097866Y-74999999D01*
X161097866Y-75000000D01*
X161118163Y-75387287D01*
X161178830Y-75770323D01*
X161178831Y-75770330D01*
X161279206Y-76144936D01*
X161418188Y-76506994D01*
X161594254Y-76852543D01*
X161805475Y-77177793D01*
X162014039Y-77435350D01*
X162014040Y-77435350D01*
X163508692Y-75940698D01*
X163582532Y-76042330D01*
X163760614Y-76220412D01*
X163862244Y-76294251D01*
X162367592Y-77788903D01*
X162367593Y-77788904D01*
X162625150Y-77997468D01*
X162950400Y-78208689D01*
X163295949Y-78384755D01*
X163658007Y-78523737D01*
X164032613Y-78624112D01*
X164032620Y-78624113D01*
X164415656Y-78684780D01*
X164802943Y-78705078D01*
X164802945Y-78705078D01*
X165190231Y-78684780D01*
X165573267Y-78624113D01*
X165573274Y-78624112D01*
X165947880Y-78523737D01*
X166309938Y-78384755D01*
X166655487Y-78208689D01*
X166980727Y-77997476D01*
X166980729Y-77997475D01*
X167238293Y-77788902D01*
X165743642Y-76294251D01*
X165845274Y-76220412D01*
X166023356Y-76042330D01*
X166097195Y-75940698D01*
X167591846Y-77435349D01*
X167800419Y-77177785D01*
X167800420Y-77177783D01*
X168011633Y-76852543D01*
X168187699Y-76506994D01*
X168326681Y-76144936D01*
X168427056Y-75770330D01*
X168427057Y-75770323D01*
X168487724Y-75387287D01*
X168508022Y-75000000D01*
X168508022Y-74999999D01*
X168487724Y-74612712D01*
X168427057Y-74229676D01*
X168427056Y-74229669D01*
X168326681Y-73855063D01*
X168187699Y-73493005D01*
X168011633Y-73147456D01*
X167800412Y-72822206D01*
X167591848Y-72564649D01*
X167591847Y-72564648D01*
X166097195Y-74059300D01*
X166023356Y-73957670D01*
X165845274Y-73779588D01*
X165743642Y-73705748D01*
X167238294Y-72211096D01*
X167238294Y-72211095D01*
X166980737Y-72002531D01*
X166655487Y-71791310D01*
X166309938Y-71615244D01*
X165947880Y-71476262D01*
X165573274Y-71375887D01*
X165573267Y-71375886D01*
X165190231Y-71315219D01*
X164802945Y-71294922D01*
X164802943Y-71294922D01*
X164415656Y-71315219D01*
X164032620Y-71375886D01*
X164032613Y-71375887D01*
X163658007Y-71476262D01*
X163295949Y-71615244D01*
X162950400Y-71791310D01*
X162625150Y-72002531D01*
X162367592Y-72211095D01*
X162367592Y-72211096D01*
X163862245Y-73705748D01*
X163760614Y-73779588D01*
X163582532Y-73957670D01*
X163508692Y-74059300D01*
X162014040Y-72564648D01*
X162014039Y-72564648D01*
X161805475Y-72822206D01*
X161594254Y-73147456D01*
X161418188Y-73493005D01*
X161279206Y-73855063D01*
X161178831Y-74229669D01*
X161178830Y-74229676D01*
X161118163Y-74612712D01*
X161097866Y-74999999D01*
X105402134Y-74999999D01*
X105381836Y-74612712D01*
X105321169Y-74229676D01*
X105321168Y-74229669D01*
X105220793Y-73855063D01*
X105081811Y-73493005D01*
X104905745Y-73147456D01*
X104694524Y-72822206D01*
X104485960Y-72564649D01*
X104485959Y-72564648D01*
X102991307Y-74059300D01*
X102917468Y-73957670D01*
X102739386Y-73779588D01*
X102637754Y-73705748D01*
X104132406Y-72211096D01*
X104132406Y-72211095D01*
X103874849Y-72002531D01*
X103549599Y-71791310D01*
X103204050Y-71615244D01*
X102841992Y-71476262D01*
X102467386Y-71375887D01*
X102467379Y-71375886D01*
X102084343Y-71315219D01*
X101697057Y-71294922D01*
X101697055Y-71294922D01*
X101309768Y-71315219D01*
X100926732Y-71375886D01*
X100926725Y-71375887D01*
X100552119Y-71476262D01*
X100190061Y-71615244D01*
X99844512Y-71791310D01*
X99519262Y-72002531D01*
X99261704Y-72211095D01*
X99261704Y-72211096D01*
X100756357Y-73705748D01*
X100654726Y-73779588D01*
X100476644Y-73957670D01*
X100402804Y-74059300D01*
X98908152Y-72564648D01*
X98908151Y-72564648D01*
X98699587Y-72822206D01*
X98488366Y-73147456D01*
X98312300Y-73493005D01*
X98173318Y-73855063D01*
X98072943Y-74229669D01*
X98072942Y-74229676D01*
X98012275Y-74612712D01*
X97991978Y-74999999D01*
X96697060Y-74999999D01*
X96697063Y-74999358D01*
X96699384Y-74786527D01*
X96699849Y-74777072D01*
X96714229Y-74612712D01*
X96736998Y-74352441D01*
X96738410Y-74341723D01*
X96758167Y-74229676D01*
X96812312Y-73922606D01*
X96814650Y-73912061D01*
X96924799Y-73500974D01*
X96928051Y-73490661D01*
X97073613Y-73090729D01*
X97077734Y-73080781D01*
X97257606Y-72695041D01*
X97262593Y-72685463D01*
X97332346Y-72564648D01*
X97475386Y-72316893D01*
X97481194Y-72307777D01*
X97725298Y-71959157D01*
X97731869Y-71950594D01*
X98005437Y-71624565D01*
X98012724Y-71616612D01*
X98313681Y-71315652D01*
X98321631Y-71308368D01*
X98647663Y-71034792D01*
X98656219Y-71028227D01*
X99004845Y-70784113D01*
X99013941Y-70778317D01*
X99382544Y-70565502D01*
X99392100Y-70560528D01*
X99777824Y-70380658D01*
X99787798Y-70376526D01*
X100187737Y-70230958D01*
X100198020Y-70227716D01*
X100609124Y-70117557D01*
X100619666Y-70115220D01*
X101038784Y-70041315D01*
X101049501Y-70039904D01*
X101474126Y-70002751D01*
X101483597Y-70002287D01*
X101678045Y-70000203D01*
X101696404Y-70000007D01*
X101697732Y-70000000D01*
X164999290Y-70000000D01*
X165000641Y-70000006D01*
G37*
%TD.AperFunction*%
%TD*%
M02*
