M48
; DRILL file {KiCad 8.0.2} date 2024-06-01T14:05:08+0200
; FORMAT={-:-/ absolute / metric / decimal}
; #@! TF.CreationDate,2024-06-01T14:05:08+02:00
; #@! TF.GenerationSoftware,Kicad,Pcbnew,8.0.2
; #@! TF.FileFunction,MixedPlating,1,2
FMAT,2
METRIC
; #@! TA.AperFunction,Plated,PTH,ViaDrill
T1C0.300
; #@! TA.AperFunction,Plated,PTH,ComponentDrill
T2C0.500
; #@! TA.AperFunction,Plated,PTH,ComponentDrill
T3C0.600
; #@! TA.AperFunction,Plated,PTH,ComponentDrill
T4C1.000
; #@! TA.AperFunction,Plated,PTH,ComponentDrill
T5C3.200
%
G90
G05
T1
X161.0Y-87.75
X161.0Y-91.0
X164.5Y-87.0
T2
X99.297Y-75.0
X99.297Y-103.1
X100.0Y-73.303
X100.0Y-76.697
X100.0Y-101.403
X100.0Y-104.797
X101.697Y-72.6
X101.697Y-77.4
X101.697Y-100.7
X101.697Y-105.5
X103.394Y-73.303
X103.394Y-76.697
X103.394Y-101.403
X103.394Y-104.797
X104.097Y-75.0
X104.097Y-103.1
X162.403Y-75.0
X162.403Y-103.1
X163.106Y-73.303
X163.106Y-76.697
X163.106Y-101.403
X163.106Y-104.797
X164.803Y-72.6
X164.803Y-77.4
X164.803Y-100.7
X164.803Y-105.5
X166.5Y-73.303
X166.5Y-76.697
X166.5Y-101.403
X166.5Y-104.797
X167.203Y-75.0
X167.203Y-103.1
T3
X166.0Y-83.0
X166.0Y-84.25
T4
X162.0Y-80.5
X162.0Y-83.04
X162.0Y-85.58
X164.25Y-89.7
X164.25Y-92.24
X164.25Y-94.78
X164.25Y-97.32
X166.79Y-89.7
X166.79Y-92.24
X166.79Y-94.78
X166.79Y-97.32
T5
X101.697Y-75.0
X101.697Y-103.1
X164.803Y-75.0
X164.803Y-103.1
M30
